<?xml version="1.0" encoding="utf-8"?>
<!-- Generator: Adobe Illustrator 16.0.0, SVG Export Plug-In . SVG Version: 6.00 Build 0)  -->
<!DOCTYPE svg PUBLIC "-//W3C//DTD SVG 1.1//EN" "http://www.w3.org/Graphics/SVG/1.1/DTD/svg11.dtd">
<svg version="1.1" id="Layer_1" xmlns="http://www.w3.org/2000/svg" xmlns:xlink="http://www.w3.org/1999/xlink" x="0px" y="0px"
	 width="128px" height="128px" viewBox="-23.025 -9.958 128 128" enable-background="new -23.025 -9.958 128 128"
	 xml:space="preserve">
<circle fill="#E62117" cx="40.976" cy="54.041" r="64"/>
<path fill="#FFFFFF" d="M53.516,20.121c-3.465,4.572-8.36,6.017-13.105,9.622c-4.421,3.035-9.094,6.7-11.646,9.135
	c-3.413,3.698-0.579,0.503-4.016,4.393V85.4c0,0,0.952-0.004,7.75,0.913l20.866,2.526c-0.043,0,9.82,2.457,13.424-8.729
	c0.959-3.007,0.7-2.235,5.751-14.364c2.337-9.239,3.168-15.862,3.134-19.112c-0.073,0.72,0.576-4.228-5.607-4.217l-11.53-0.876
	c-6.419-0.212-4.276-2.774-2.876-5.322c1.992-3.628,9.714-5.585,10.277-13.877c0.86-12.775-6.354-8.708-6.354-8.708 M19.397,85.229
	L4.602,84.955v-41.49l14.951-0.078"/>
</svg>
