<svg width="128" height="128" viewBox="0 0 128 128" fill="none" xmlns="http://www.w3.org/2000/svg">
  <g clip-path="url(#a)">
    <path fill="#fff" d="M0 0h128v128H0z"/>
    <circle cx="63.976" cy="64.041" r="64" fill="#E62117"/>
    <path fill-rule="evenodd" clip-rule="evenodd" d="M68.543 36.43c2.966-1.746 5.761-3.39 7.973-6.309l6.068-6.487s7.214-4.067 6.354 8.708c-.372 5.474-3.864 8.188-6.767 10.444-1.495 1.16-2.833 2.2-3.51 3.433-.13.236-.265.472-.4.706-1.323 2.296-2.55 4.424 3.276 4.616l11.53.876c5.763-.01 5.59 4.288 5.6 4.289l.007-.072c.034 3.25-.797 9.873-3.134 19.112-3.93 9.439-4.646 11.065-5.221 12.739-.165.477-.317.958-.53 1.625-3.604 11.186-13.467 8.729-13.424 8.729l-20.866-2.526c-6.798-.917-7.75-.913-7.75-.913V53.271c1.733-1.96 1.872-2.121 2.02-2.272.147-.148.303-.287 1.996-2.121 2.552-2.435 7.225-6.1 11.646-9.135 1.716-1.304 3.452-2.325 5.132-3.314ZM27.602 94.954l14.795.274.156-41.842-14.951.078v41.49Z" fill="#fff"/>
  </g>
  <defs>
    <clipPath id="a">
      <path fill="#fff" d="M0 0h128v128H0z"/>
    </clipPath>
  </defs>
</svg>